#!OML:ASF Y:\EmotionMaleHayes\Project 1\Capture day 1\Session 1\Male1.ASF
:FULLY-SPECIFIED
:DEGREES
966
root 41.3516 16.1837 11.2469 -363.865 142.671 -365.587
lowerback 6.86452 -0.619021 -6.83346
upperback 8.38239 -0.395933 0.154917
thorax 5.01837 -0.310065 4.02097
lowerneck -21.4045 4.20492 7.90175
upperneck 25.1718 2.84012 3.31464
head 11.9498 2.67919 0.440268
rclavicle 1.15494e-013 -1.80894e-014
rhumerus -23.4785 3.47367 -81.0846
rradius 25.5777
rwrist 5.59058
rhand -12.2984 -35.4634
rfingers 7.12502
rthumb 13.7695 -64.9878
lclavicle 1.15494e-013 -1.80894e-014
lhumerus -21.53 -23.7117 100.1
lradius 39.7735
lwrist 4.53038
lhand -23.639 -32.7562
lfingers 7.12502
lthumb 2.82595 -2.79519
rfemur -27.3821 7.90737 9.64755
rtibia 30.4507
rfoot -8.09636 0.0162893
rtoes 4.85526
lfemur 19.4794 -5.82117 -31.7913
ltibia 26.635
lfoot -6.41305 -18.0385
ltoes 18.4311
967
root 41.471 16.2013 11.1524 -363.579 142.999 -364.94
lowerback 6.97635 -0.641173 -6.42025
upperback 8.4791 -0.415367 0.459593
thorax 5.05351 -0.305823 4.11089
lowerneck -21.5608 4.26091 8.02819
upperneck 25.3769 2.84815 3.37679
head 12.0646 2.71486 0.454151
rclavicle -3.32964e-014 0
rhumerus -22.384 3.79408 -81.0614
rradius 25.23
rwrist 5.14403
rhand -12.2115 -35.6782
rfingers 7.12502
rthumb 13.8532 -65.1969
lclavicle -3.32964e-014 0
lhumerus -21.881 -19.7202 99.7735
lradius 38.0355
lwrist 1.8918
lhand -22.7377 -31.8478
lfingers 7.12502
lthumb 3.69637 -1.90008
rfemur -26.5254 8.21387 10.5086
rtibia 30.4162
rfoot -8.71065 -0.244359
rtoes 3.93768
lfemur 18.9363 -5.50885 -30.6957
ltibia 28.4217
lfoot -4.34698 -17.6192
ltoes 18.8307
968
root 41.588 16.2184 11.0498 -363.437 143.498 -364.489
lowerback 7.06844 -0.723328 -6.05944
upperback 8.5716 -0.509207 0.681549
thorax 5.10502 -0.33777 4.14484
lowerneck -21.7776 4.25791 7.90398
upperneck 25.7577 2.70173 4.05263
head 12.2475 2.75826 0.723283
rclavicle 1.83876e-014 -5.56597e-015
rhumerus -21.456 4.16148 -81.0599
rradius 24.9091
rwrist 5.28955
rhand -12.3824 -35.1666
rfingers 7.12502
rthumb 13.6884 -64.6964
lclavicle 1.83876e-014 -5.56597e-015
lhumerus -21.5484 -17.2149 99.3312
lradius 34.9972
lwrist 0.439246
lhand -22.3433 -30.3798
lfingers 7.12502
lthumb 4.07725 -0.439078
rfemur -25.3921 8.31208 11.146
rtibia 30.1008
rfoot -9.27794 -0.56525
rtoes 3.17302
lfemur 18.464 -5.60264 -29.9893
ltibia 30.347
lfoot -1.7832 -17.0309
ltoes 22.6247
969
root 41.7004 16.2363 10.9483 -363.34 144.12 -364.232
lowerback 7.11974 -0.849928 -5.90275
upperback 8.63406 -0.670972 0.9349
thorax 5.16323 -0.417037 4.32808
lowerneck -21.7781 4.22085 7.75681
upperneck 25.8012 2.63976 4.29952
head 12.2583 2.75524 0.83212
rclavicle -5.66536e-015 -1.74931e-014
rhumerus -20.6989 3.88217 -80.798
rradius 24.9903
rwrist 6.27369
rhand -12.4122 -34.6243
rfingers 7.12502
rthumb 13.6597 -64.1561
lclavicle -5.66536e-015 -1.74931e-014
lhumerus -20.7167 -15.0887 98.8927
lradius 31.3752
lwrist -1.34284
lhand -21.9823 -27.4009
lfingers 7.12502
lthumb 4.42583 2.53289
rfemur -24.4004 7.99524 11.5033
rtibia 29.8988
rfoot -9.89865 -0.602668
rtoes 3.71439
lfemur 17.7746 -5.80178 -29.4574
ltibia 32.4401
lfoot 1.00466 -16.0254
ltoes 27.8749
970
root 41.8211 16.2584 10.8585 -363.023 144.71 -363.763
lowerback 7.07608 -0.930998 -5.76652
upperback 8.66615 -0.776435 1.27616
thorax 5.23854 -0.474724 4.6137
lowerneck -21.8049 4.20068 7.71088
upperneck 25.851 2.61713 4.33182
head 12.2815 2.74813 0.850218
rclavicle 5.36719e-014 -2.38542e-014
rhumerus -20.2532 5.35379 -81.2145
rradius 25.8176
rwrist 7.21932
rhand -13.149 -38.7115
rfingers 7.12502
rthumb 12.9496 -68.2897
lclavicle 5.36719e-014 -2.38542e-014
lhumerus -19.8596 -12.5569 98.3232
lradius 27.1467
lwrist -2.6725
lhand -21.7233 -27.5077
lfingers 7.12502
lthumb 4.67594 2.42069
rfemur -23.6689 7.61964 12.1103
rtibia 29.9373
rfoot -10.6681 -0.630529
rtoes 4.11752
lfemur 16.8115 -5.90207 -28.5307
ltibia 34.6648
lfoot 3.38087 -14.9866
ltoes 30.4116
971
root 41.9412 16.279 10.7735 -362.571 145.269 -363.003
lowerback 7.11704 -0.981041 -5.30357
upperback 8.67602 -0.833371 1.59278
thorax 5.22329 -0.484288 4.68862
lowerneck -22.0679 4.23492 7.77812
upperneck 26.4437 2.45266 5.0427
head 12.5692 2.82597 1.11316
rclavicle 6.65929e-014 -2.38542e-015
rhumerus -19.2072 4.14311 -80.8036
rradius 25.5197
rwrist 6.73867
rhand -12.2328 -36.3307
rfingers 7.12502
rthumb 13.8327 -65.8507
lclavicle 6.65929e-014 -2.38542e-015
lhumerus -18.8911 -9.11232 97.3701
lradius 22.8675
lwrist -5.65215
lhand -21.1618 -27.9506
lfingers 7.12502
lthumb 5.21809 1.96514
rfemur -22.933 7.31963 13.064
rtibia 30.0123
rfoot -11.4643 -0.818328
rtoes 3.34868
lfemur 15.8482 -6.0303 -27.374
ltibia 36.921
lfoot 4.90818 -14.618
ltoes 28.5246
972
root 42.0533 16.2987 10.6858 -362.347 145.806 -362.65
lowerback 7.16044 -1.03932 -5.1359
upperback 8.69467 -0.905683 1.83177
thorax 5.22843 -0.515885 4.84901
lowerneck -22.2704 4.17754 7.68863
upperneck 26.6088 2.32245 5.25945
head 12.6725 2.80248 1.20066
rclavicle 1.01977e-013 -1.70955e-014
rhumerus -18.2634 3.7932 -80.6025
rradius 25.407
rwrist 6.62516
rhand -11.9937 -35.2201
rfingers 7.12502
rthumb 14.0631 -64.7243
lclavicle 1.01977e-013 -1.70955e-014
lhumerus -17.6522 -3.81094 96.0027
lradius 18.4016
lwrist -10.8592
lhand -20.2948 -27.5906
lfingers 7.12502
lthumb 6.05517 2.30286
rfemur -22.0285 7.16617 13.5757
rtibia 29.677
rfoot -12.0129 -1.16455
rtoes 2.53039
lfemur 14.8242 -5.79022 -26.5582
ltibia 38.5811
lfoot 6.56931 -14.2325
ltoes 23.5429
973
root 42.1593 16.318 10.6015 -362.268 146.392 -362.674
lowerback 7.0428 -1.10686 -5.42914
upperback 8.775 -0.992333 2.07557
thorax 5.41334 -0.587414 5.27545
lowerneck -22.3679 4.26497 7.79714
upperneck 26.6795 2.37505 5.35983
head 12.7245 2.85666 1.23719
rclavicle -4.55217e-014 -5.56597e-015
rhumerus -17.1566 3.71805 -80.3642
rradius 25.4839
rwrist 6.2752
rhand -11.9857 -34.9724
rfingers 7.12502
rthumb 14.0708 -64.476
lclavicle -4.55217e-014 -5.56597e-015
lhumerus -16.2489 5.07297 93.9332
lradius 13.8338
lwrist -20.1243
lhand -19.5088 -26.8068
lfingers 7.12502
lthumb 6.81401 3.06358
rfemur -20.96 7.378 13.6516
rtibia 28.8425
rfoot -12.4277 -1.82162
rtoes 2.92319
lfemur 13.6607 -5.79008 -26.1383
ltibia 40.7654
lfoot 8.38694 -13.4614
ltoes 23.03
974
root 42.2585 16.3364 10.52 -362.026 146.98 -362.363
lowerback 7.20701 -1.12009 -5.1034
upperback 8.69924 -1.01069 2.17308
thorax 5.23047 -0.572969 5.19588
lowerneck -22.2364 4.24845 8.19184
upperneck 26.6395 2.24086 5.38431
head 12.6932 2.84756 1.15692
rclavicle -5.42682e-014 5.20816e-014
rhumerus -16.4524 3.66026 -80.4554
rradius 25.5243
rwrist 6.36349
rhand -12.155 -34.9551
rfingers 7.12502
rthumb 13.9076 -64.47
lclavicle -5.42682e-014 5.20816e-014
lhumerus -14.8281 8.08633 93.5354
lradius 9.11127
lwrist -24.4806
lhand -19.9065 -24.4342
lfingers 7.12502
lthumb 6.43005 5.44816
rfemur -19.946 7.69236 14.0919
rtibia 28.0935
rfoot -12.8421 -2.57386
rtoes 2.96656
lfemur 12.4434 -5.76934 -25.4053
ltibia 42.8895
lfoot 10.2789 -12.5138
ltoes 23.987
975
root 42.357 16.3553 10.4393 -361.546 147.517 -361.47
lowerback 7.3415 -1.15732 -4.36878
upperback 8.71371 -1.03205 2.44368
thorax 5.15156 -0.541302 5.06841
lowerneck -22.36 4.24733 8.39881
upperneck 26.7591 2.09479 5.65056
head 12.7724 2.85862 1.21165
rclavicle 4.21423e-014 -2.38542e-014
rhumerus -15.6792 3.78386 -80.4745
rradius 25.7124
rwrist 6.10579
rhand -11.9178 -35.059
rfingers 7.12502
rthumb 14.1362 -64.5581
lclavicle 4.21423e-014 -2.38542e-014
lhumerus -12.8501 11.1559 93.2695
lradius 3.91868
lwrist -29.4487
lhand -19.9025 -21.0721
lfingers 7.12502
lthumb 6.43393 8.81019
rfemur -19.6577 6.3206 15.1074
rtibia 28.6445
rfoot -13.3638 -1.86867
rtoes 1.66111
lfemur 11.3288 -5.77314 -24.0983
ltibia 44.9298
lfoot 12.0508 -11.2389
ltoes 26.4602
976
root 42.453 16.3754 10.3592 -361.101 148.013 -360.56
lowerback 7.50445 -1.19666 -3.58963
upperback 8.76217 -1.04425 2.71286
thorax 5.09201 -0.500399 4.91446
lowerneck -22.4352 4.23227 8.49581
upperneck 26.6815 1.94663 6.01381
head 12.7592 2.8601 1.31268
rclavicle 1.13506e-013 -4.37326e-014
rhumerus -14.8562 3.9554 -80.4875
rradius 25.9275
rwrist 5.68258
rhand -11.9054 -35.1144
rfingers 7.12502
rthumb 14.1482 -64.6126
lclavicle 1.13506e-013 -4.37326e-014
lhumerus -11.9221 14.1075 92.4262
lradius 1.16828
lwrist -34.9788
lhand -18.1676 -16.5323
lfingers 7.12502
lthumb 8.10854 13.2922
rfemur -18.6941 6.21854 16.2015
rtibia 28.1567
rfoot -13.7897 -2.08891
rtoes 1.28542
lfemur 10.2413 -5.63954 -22.7668
ltibia 46.8345
lfoot 13.1536 -10.0095
ltoes 26.4216
977
root 42.5439 16.3972 10.2762 -360.827 148.444 -360.047
lowerback 7.62804 -1.19291 -3.03163
upperback 8.78851 -1.00688 2.85574
thorax 5.03072 -0.445611 4.74997
lowerneck -22.3458 4.11707 8.23663
upperneck 26.3135 1.74843 6.6019
head 12.5861 2.81748 1.53225
rclavicle 4.47266e-014 2.3059e-014
rhumerus -14.0623 4.35608 -80.5162
rradius 26.1491
rwrist 5.04877
rhand -11.8744 -35.0987
rfingers 7.12502
rthumb 14.1781 -64.5949
lclavicle 4.47266e-014 2.3059e-014
lhumerus -13.0107 16.8264 90.7975
lradius 2.301
lwrist -40.7714
lhand -14.2676 -12.2265
lfingers 7.12502
lthumb 11.8711 17.417
rfemur -17.8694 6.29208 16.8598
rtibia 27.8115
rfoot -14.3118 -2.22183
rtoes 2.56769
lfemur 9.06437 -5.45377 -21.9771
ltibia 48.6719
lfoot 13.2441 -9.12923
ltoes 21.8915
978
root 42.6337 16.4179 10.194 -360.571 148.865 -359.597
lowerback 7.68326 -1.18144 -2.57955
upperback 8.83333 -0.960276 2.99537
thorax 5.03157 -0.393644 4.64135
lowerneck -22.345 3.94746 7.96541
upperneck 26.0911 1.48214 7.12582
head 12.4921 2.74309 1.72472
rclavicle 1.13307e-014 1.59028e-015
rhumerus -13.2648 4.60015 -80.551
rradius 26.3852
rwrist 4.63505
rhand -12.1441 -35.0332
rfingers 7.12502
rthumb 13.9181 -64.5474
lclavicle 1.13307e-014 1.59028e-015
lhumerus -14.2586 19.5183 89.076
lradius 3.78867
lwrist -46.9623
lhand -10.0852 -9.21318
lfingers 7.12502
lthumb 15.9016 20.154
rfemur -17.8737 4.52161 17.2372
rtibia 28.6622
rfoot -14.8565 -0.634493
rtoes 4.97164
lfemur 7.8258 -5.40954 -21.3618
ltibia 50.5355
lfoot 12.0211 -8.85645
ltoes 14.8467
